<?xml version="1.0" standalone="no"?>
<!DOCTYPE svg PUBLIC "-//W3C//DTD SVG 1.1//EN" "http://www.w3.org/Graphics/SVG/1.1/DTD/svg11.dtd" >
<svg xmlns="http://www.w3.org/2000/svg" xmlns:xlink="http://www.w3.org/1999/xlink" version="1.1">
<metadata></metadata>
<defs>
<font id="zktqktregular" horiz-adv-x="1024" >
<font-face units-per-em="2048" ascent="1760" descent="-288" />
<missing-glyph horiz-adv-x="500" />
<glyph horiz-adv-x="0" />
<glyph horiz-adv-x="682" />
<glyph unicode=" " />
<glyph unicode="!" d="M504 8q-48 0 -80 32t-32 80t32 80t80 32t80 -32t32 -80t-32 -80t-80 -32zM536 544v-80h-64v80q0 216 -28 436t-28 324q0 64 20 100t68 36q56 0 72 -40t16 -96q0 -104 -28 -324t-28 -436z" />
<glyph unicode="&#x22;" d="M360 1576q16 32 40 48t48 16q56 0 72 -32t16 -56q0 -16 -8 -36t-24 -36l-328 -328q-8 -8 -20 -4t-12 28zM768 1640q40 0 64 -32t24 -56q0 -16 -8 -36t-24 -36l-328 -328q-8 -8 -20 -4t-12 28l216 400q16 32 40 48t48 16z" />
<glyph unicode="#" d="M664 368h-368l-24 -352h-72l24 352h-152v152h160l40 416h-200v152h208l24 328h72l-24 -328h368l24 328h72l-24 -328h152v-152h-160l-40 -416h200v-152h-208l-24 -352h-72zM304 520h368l40 416h-368z" />
<glyph unicode="$" d="M552 -184h-72v208q-136 0 -240 80t-104 216q0 40 28 76t76 36t68 -24t20 -72t-24 -72t-24 -72t60 -80t140 -32v608q-224 168 -264 252t-40 148q0 120 92 212t212 108v144h72v-144q120 0 204 -76t84 -164q0 -72 -28 -104t-76 -32q-40 0 -60 16t-20 56q0 32 24 52t24 76 q0 32 -36 76t-116 44v-520q136 -112 220 -216t84 -224q0 -184 -100 -268t-204 -100v-208zM552 88q64 0 124 52t60 196q0 80 -44 156t-140 148v-552zM296 1128q0 -64 44 -124t140 -132v480q-72 -16 -128 -68t-56 -156z" />
<glyph unicode="%" d="M240 1360q-48 0 -80 -64t-32 -240q0 -200 36 -260t76 -60q56 0 84 72t28 248q0 144 -20 224t-92 80zM456 1048q0 -144 -48 -252t-168 -108q-96 0 -156 96t-60 264q0 176 64 272t152 96q96 0 156 -100t60 -268zM872 384q0 136 -24 224t-88 88q-48 0 -80 -76t-32 -236 q0 -200 36 -256t76 -56q56 0 84 68t28 244zM976 376q0 -160 -56 -260t-160 -100q-88 0 -152 100t-64 260q0 176 64 276t152 100q96 0 156 -104t60 -272zM808 1392l-576 -1376l-48 24l568 1376z" />
<glyph unicode="&#x26;" d="M616 312q40 64 60 156t20 204q0 40 -16 60t-56 20h-40v48h320v-48h-32q-40 0 -64 -24t-32 -72q-24 -136 -52 -240t-68 -160q56 -72 100 -108t84 -36t68 32t52 96l32 -16q-16 -104 -68 -156t-140 -52q-40 0 -88 32t-112 104q-56 -72 -124 -104t-140 -32q-112 0 -204 104 t-92 256q0 120 52 220t156 180q-24 80 -40 168t-16 168q0 144 72 224t160 80q120 0 168 -72t48 -168q0 -128 -64 -228t-200 -156q56 -152 120 -276t136 -204zM144 440q0 -176 64 -256t176 -80q48 0 88 20t72 68q-88 104 -164 244t-132 292q-48 -48 -76 -120t-28 -168z M512 1184q0 96 -20 140t-84 44q-40 0 -84 -44t-44 -164q0 -80 16 -164t48 -156q88 40 128 132t40 212z" />
<glyph unicode="'" d="M144 1544q0 32 28 64t84 32q64 0 100 -52t36 -108q0 -112 -64 -208t-184 -144l-32 40q80 48 120 100t40 108q0 40 -64 72t-64 96z" />
<glyph unicode="(" d="M928 1608q-184 -192 -276 -412t-92 -460q0 -248 92 -464t276 -408l-40 -40q-224 200 -336 428t-112 484q0 248 112 476t336 436z" />
<glyph unicode=")" d="M88 1608l40 40q224 -208 336 -436t112 -476q0 -256 -112 -484t-336 -428l-40 40q184 192 276 408t92 464q0 240 -92 460t-276 412z" />
<glyph unicode="*" d="M808 840l-272 -104l272 -104q104 -40 120 -64t16 -48q0 -64 -24 -72t-48 -8t-48 12t-56 36l-248 224l56 -336q8 -24 8 -44v-28q0 -48 -24 -68t-56 -20q-24 0 -52 16t-28 72q0 16 4 32t4 40l64 336l-248 -224q-24 -16 -52 -32t-52 -16t-48 16t-24 64q0 32 24 56t112 56 l272 104l-272 104q-56 24 -96 44t-40 68q0 40 24 60t48 20t52 -12t52 -36l248 -224l-56 336q0 24 -4 40t-4 32q0 32 24 60t56 28q48 0 64 -32t16 -56v-36t-8 -36l-64 -336l248 224q32 32 56 40t48 8q32 0 52 -24t20 -56t-16 -52t-120 -60z" />
<glyph unicode="+" d="M488 784v456h72v-456h400v-72h-400v-456h-72v456h-400v72h400z" />
<glyph unicode="," d="M144 176q0 32 28 64t84 32q64 0 100 -52t36 -108q0 -112 -64 -208t-184 -144l-32 40q80 48 120 100t40 108q0 40 -64 72t-64 96z" />
<glyph unicode="-" d="M64 712v72h888v-72h-888z" />
<glyph unicode="." d="M256 8q-48 0 -84 32t-36 88t36 88t84 32t84 -36t36 -84q0 -56 -36 -88t-84 -32z" />
<glyph unicode="/" d="M128 -152l-56 32l816 1712l56 -32z" />
<glyph unicode="0" d="M512 1352q-112 0 -188 -172t-76 -460q0 -304 76 -472t188 -168q120 0 188 168t68 472q0 288 -64 460t-192 172zM512 16q-176 0 -296 184t-120 520q0 312 116 504t300 192q176 0 292 -184t116 -512t-116 -516t-292 -188z" />
<glyph unicode="1" d="M584 1424v-1216q0 -64 40 -96t112 -32h80v-48h-584v48h72q80 0 116 32t36 96v968q0 32 -20 52t-60 20h-144v48h72q96 0 156 32t92 96h32z" />
<glyph unicode="2" d="M744 1064q0 144 -64 220t-192 76q-96 0 -164 -52t-68 -132q0 -48 28 -80t28 -64q0 -40 -20 -60t-60 -20q-48 0 -76 28t-28 92q0 168 120 256t256 88q192 0 284 -96t92 -240q0 -96 -44 -192t-140 -184q-232 -224 -356 -364t-148 -188h472q72 0 120 56t64 168h48l-48 -344 h-744v104q40 72 132 184t244 264q136 136 200 256t64 224z" />
<glyph unicode="3" d="M896 400q0 -152 -112 -268t-312 -116q-144 0 -248 80t-104 184q0 48 32 84t64 36q48 0 68 -36t20 -60q0 -40 -16 -68t-16 -52q0 -48 60 -80t132 -32q144 0 216 84t72 260q0 144 -76 232t-284 88v56q160 0 236 76t76 212q0 112 -60 196t-188 84q-56 0 -120 -28t-64 -92 t16 -80t16 -40q0 -40 -16 -64t-56 -24q-32 0 -60 24t-28 88q0 120 104 196t240 76q160 0 256 -100t96 -212q0 -120 -60 -204t-188 -124q176 -64 240 -168t64 -208z" />
<glyph unicode="4" d="M736 184q0 -56 32 -80t88 -24h72v-48h-528v48h88q64 0 92 24t28 80v264h-536v40l584 928h80v-920h216v-48h-216v-264zM600 1216l-456 -720h464v720h-8z" />
<glyph unicode="5" d="M552 912q152 0 248 -116t96 -308q0 -216 -100 -344t-308 -128q-144 0 -256 84t-112 204q0 48 28 84t76 36t64 -32t16 -56q0 -48 -24 -76t-24 -60q0 -64 76 -96t164 -32q128 0 196 104t68 296q0 160 -60 260t-180 100q-88 0 -152 -32t-120 -136l-72 8l40 728h656l-24 -120 h-576l-32 -528q80 112 156 136t156 24z" />
<glyph unicode="6" d="M248 576q0 -240 84 -372t204 -132t184 88t64 328q0 160 -68 248t-164 88q-88 0 -164 -52t-140 -196zM560 904q192 0 276 -128t84 -288q0 -240 -116 -356t-268 -116q-216 0 -328 164t-112 476q0 368 136 564t368 196q112 0 180 -64t68 -112t-20 -72t-68 -24q-40 0 -60 20 t-20 60q0 16 4 32t4 32q0 32 -24 52t-88 20q-136 0 -232 -124t-96 -540q48 104 132 156t180 52z" />
<glyph unicode="7" d="M904 1344q-168 -272 -268 -532t-100 -452q0 -32 4 -92t4 -140q0 -64 -20 -88t-68 -24q-40 0 -68 28t-28 100q0 152 68 376t364 760h-400q-88 0 -140 -56t-76 -168l-48 8l56 336h720v-56z" />
<glyph unicode="8" d="M200 360q0 -128 84 -208t212 -80q152 0 220 80t68 200q0 104 -96 200t-288 176q-96 -64 -148 -160t-52 -208zM904 376q0 -152 -112 -256t-296 -104q-168 0 -288 104t-120 240t68 232t196 168q-112 56 -172 140t-60 188q0 136 104 232t288 96q168 0 272 -96t104 -232 q0 -96 -60 -180t-188 -148q136 -80 200 -176t64 -208zM776 1080q0 112 -64 196t-200 84q-152 0 -216 -80t-64 -168t92 -172t260 -148q96 48 144 120t48 168z" />
<glyph unicode="9" d="M224 976q0 -176 68 -268t172 -92q120 0 208 112t88 208q0 192 -64 308t-208 116q-136 0 -200 -108t-64 -276zM440 544q-160 0 -256 100t-96 324q0 192 104 320t296 128q200 0 312 -160t112 -464q0 -336 -132 -556t-364 -220q-104 0 -180 48t-76 128q0 32 20 64t68 32 t64 -36t16 -84q0 -32 8 -52t16 -28t28 -12t44 -4q144 0 232 160t104 536q-40 -96 -120 -160t-200 -64z" />
<glyph unicode=":" d="M608 872q0 -48 -32 -80t-80 -32t-80 32t-32 80t32 80t80 32t80 -32t32 -80zM608 120q0 -48 -32 -80t-80 -32t-80 32t-32 80t32 80t80 32t80 -32t32 -80z" />
<glyph unicode=";" d="M592 768h-184v176h184v-176zM592 32l-104 -216h-80l80 216h-80v176h184v-176z" />
<glyph unicode="&#x3c;" d="M128 736l712 712l48 -48l-664 -664l664 -664l-48 -48z" />
<glyph unicode="=" d="M64 904v72h888v-72h-888zM64 496v72h888v-72h-888z" />
<glyph unicode="&#x3e;" d="M896 736l-712 -712l-48 48l664 664l-664 664l48 48z" />
<glyph unicode="?" d="M216 912q-48 0 -80 32t-32 120q0 144 120 260t296 116t288 -104t112 -272q0 -88 -32 -164t-144 -140q-120 -72 -172 -116t-52 -132v-144h-64v160q0 88 28 140t100 100q120 80 156 144t36 160q0 152 -68 224t-204 72q-144 0 -224 -76t-80 -148q0 -24 12 -36t36 -28 q32 -16 44 -40t12 -56q0 -40 -24 -56t-64 -16zM608 120q0 -48 -32 -80t-80 -32t-80 32t-32 80t32 80t80 32t80 -32t32 -80z" />
<glyph unicode="@" d="M440 336q-48 0 -92 64t-44 192q0 176 96 372t216 196q32 0 52 -16t28 -48l16 72h88l-72 -504q-8 -64 -16 -112t-8 -72q0 -32 12 -48t28 -16q64 0 112 112t48 304q0 320 -108 424t-228 104q-144 0 -260 -148t-116 -508q0 -312 96 -468t256 -156q120 0 212 64t156 192 l56 -16q-80 -160 -184 -232t-240 -72q-208 0 -336 196t-128 492q0 328 144 520t344 192q168 0 288 -136t120 -440q0 -240 -80 -372t-176 -132q-40 0 -68 32t-36 104q-32 -72 -76 -104t-100 -32zM472 400q48 0 88 56t64 168l56 392q8 48 -12 72t-52 24q-56 0 -132 -164 t-76 -412q0 -72 16 -104t48 -32z" />
<glyph unicode="A" d="M648 544h-360l-72 -304q-16 -72 0 -116t72 -44h24v-48h-296v48h24q32 0 56 20t32 68l312 1224l120 40l304 -1264q16 -48 40 -68t56 -20h24v-48h-344v48h32q48 0 60 28t-4 84zM480 1256h-8l-168 -664h336z" />
<glyph unicode="B" d="M32 32v48h64q40 0 56 16t16 48v1144q0 32 -16 48t-56 16h-48v48h464q192 0 284 -76t92 -236q0 -112 -48 -184t-200 -128q184 -56 248 -160t64 -232q0 -160 -112 -256t-304 -96h-504zM512 80q136 0 212 84t76 236q0 176 -80 260t-240 84h-184v-600q0 -32 20 -48t52 -16 h144zM752 1088q0 144 -80 204t-208 60h-96q-32 0 -52 -16t-20 -48v-496h208q88 0 168 72t80 224z" />
<glyph unicode="C" d="M552 16q-224 0 -356 168t-132 528q0 304 140 504t380 200q56 0 112 -20t96 -20q32 0 52 8t36 32l72 -352l-48 -16q-48 152 -128 232t-208 80q-168 0 -260 -184t-92 -456q0 -296 80 -464t264 -168q128 0 220 92t124 244l48 -24q-40 -168 -148 -276t-252 -108z" />
<glyph unicode="D" d="M800 728q0 344 -104 484t-288 140q-56 0 -84 -16t-28 -48v-1144q0 -32 24 -48t64 -16q176 0 296 132t120 516zM168 1288q0 32 -16 48t-56 16h-48v48h360q248 0 396 -160t148 -496q0 -368 -144 -540t-424 -172h-344v48h56q40 0 56 16t16 48v1144z" />
<glyph unicode="E" d="M64 1352v48h784l88 -272l-40 -16q-64 120 -136 180t-160 60h-224q-32 0 -52 -16t-20 -48v-496h232q80 0 116 40t36 120v48h48v-472h-48v32q0 88 -36 136t-116 48h-232v-600q0 -32 20 -48t52 -16h208q120 0 204 68t132 212l40 -16l-88 -312h-816v48h48q40 0 56 16t16 48 v1144q0 32 -16 48t-56 16h-40z" />
<glyph unicode="F" d="M432 80v-48h-384v48h56q40 0 56 16t16 48v1144q0 32 -16 48t-56 16h-48v48h832l96 -288l-40 -16q-64 128 -152 192t-192 64h-224q-32 0 -52 -16t-20 -48v-512h264q80 0 116 36t36 116v40h48v-464h-48v32q0 96 -36 144t-116 48h-264v-584q0 -32 20 -48t52 -16h56z" />
<glyph unicode="G" d="M520 1360q-120 0 -220 -164t-100 -500q0 -224 76 -424t252 -200q88 0 140 36t60 108v272q0 48 -24 72t-72 24h-48v48h400v-48h-40q-40 0 -64 -24t-24 -64v-400q-16 8 -28 12t-28 4t-32 -4t-32 -20q-48 -40 -100 -56t-116 -16q-240 0 -352 212t-112 468q0 296 132 508 t332 212q48 0 112 -24t80 -24q24 0 48 12t40 36l64 -360l-48 -16q-48 168 -120 244t-176 76z" />
<glyph unicode="H" d="M872 144q0 -32 20 -48t52 -16h40v-48h-352v48h40q40 0 56 16t16 48v584h-472v-584q0 -32 20 -48t52 -16h40v-48h-352v48h40q40 0 56 16t16 48v1144q0 32 -16 48t-56 16h-32v48h336v-48h-32q-32 0 -52 -16t-20 -48v-512h472v512q0 32 -16 48t-56 16h-32v48h336v-48h-32 q-32 0 -52 -16t-20 -48v-1144z" />
<glyph unicode="I" d="M192 1352v48h640v-48h-184q-32 0 -52 -16t-20 -48v-1144q0 -32 20 -48t52 -16h184v-48h-640v48h184q40 0 56 16t16 48v1144q0 32 -16 48t-56 16h-184z" />
<glyph unicode="J" d="M584 1288q0 32 -16 48t-56 16h-192v48h656v-48h-192q-32 0 -52 -16t-20 -48v-1136q0 -176 -112 -276t-280 -100q-120 0 -184 48t-64 112q0 48 28 72t60 24q40 0 64 -28t24 -68q0 -16 -4 -28t-20 -28q16 -24 48 -36t80 -12q104 0 168 68t64 252v1136z" />
<glyph unicode="K" d="M984 32h-344v48h24q48 0 56 32t-24 88l-272 584l-128 -184v-456q0 -32 20 -48t52 -16h48v-48h-368v48h48q40 0 56 16t16 48v1144q0 32 -16 48t-56 16h-48v48h368v-48h-48q-32 0 -52 -16t-20 -48v-584l376 536q40 56 24 84t-72 28h-32v48h344v-48h-16q-40 0 -80 -24 t-80 -72l-256 -352l344 -736q24 -48 52 -68t44 -20h40v-48z" />
<glyph unicode="L" d="M320 144q0 -32 20 -48t52 -16h216q112 0 192 68t120 212l40 -16l-72 -312h-824v48h56q40 0 56 16t16 48v1144q0 32 -16 48t-56 16h-48v48h376v-48h-56q-32 0 -52 -16t-20 -48v-1144z" />
<glyph unicode="M" d="M896 144q0 -32 20 -48t52 -16h32v-48h-344v48h40q40 0 56 16t16 48v1048h-16l-272 -1160h-48v0l-248 1136h-16v-1024q0 -32 20 -48t52 -16h24v-48h-240v48h24q40 0 56 16t16 48v1144q0 32 -16 48t-56 16h-32v48h232l232 -1072h16l248 1072h256v-48h-32q-32 0 -52 -16 t-20 -48v-1144z" />
<glyph unicode="N" d="M808 352h16v936q0 32 -16 48t-56 16h-64v48h320v-48h-64q-32 0 -52 -16t-20 -48v-1256h-48v0l-608 1192h-16v-1080q0 -32 20 -48t52 -16h64v-48h-320v48h64q40 0 56 16t16 48v1144q0 32 -16 48t-56 16h-48v48h232z" />
<glyph unicode="O" d="M224 720q0 -344 84 -500t212 -156q136 0 216 148t80 508q0 288 -68 464t-228 176q-136 0 -216 -160t-80 -480zM968 720q0 -328 -128 -516t-320 -188q-184 0 -316 192t-132 512q0 312 124 504t324 192q208 0 328 -204t120 -492z" />
<glyph unicode="P" d="M304 672v-528q0 -32 20 -48t52 -16h56v-48h-384v48h56q40 0 56 16t16 48v1144q0 32 -16 48t-56 16h-48v48h472q200 0 308 -100t108 -252q0 -184 -116 -280t-276 -96h-248zM504 720q120 0 212 72t92 248q0 160 -76 236t-244 76h-112q-32 0 -52 -16t-20 -48v-568h200z" />
<glyph unicode="Q" d="M592 88q-24 120 -56 196t-96 76q-32 0 -76 -32t-44 -104q0 -56 56 -100t136 -44h52t28 8zM456 440q96 0 148 -68t92 -204q56 40 84 180t28 372q0 312 -68 476t-228 164q-136 0 -216 -160t-80 -480q0 -160 12 -268t36 -156q32 72 72 108t120 36zM512 24q-176 0 -312 160 t-136 536q0 320 120 508t328 188q192 0 320 -180t128 -516q0 -280 -68 -424t-164 -216q16 -56 40 -80t48 -24q32 0 56 16t32 56l32 -16q-24 -96 -64 -140t-96 -44q-40 0 -76 24t-92 160q-8 -8 -32 -8h-64z" />
<glyph unicode="R" d="M904 1080q0 -160 -88 -248t-200 -104l240 -592q16 -32 36 -44t44 -12h48v-48h-224l-264 688h-184v-576q0 -32 20 -48t52 -16h48v-48h-368v48h48q40 0 56 16t16 48v1144q0 32 -16 48t-56 16h-48v48h456q184 0 284 -80t100 -240zM312 768h176q120 0 200 72t80 224 q0 136 -72 212t-224 76h-88q-32 0 -52 -16t-20 -48v-520z" />
<glyph unicode="S" d="M480 688q-216 96 -296 168t-80 224q0 120 100 228t284 108q80 0 152 -28t104 -28q24 0 44 12t36 44l32 -328l-40 -16q-72 168 -148 228t-196 60q-152 0 -208 -84t-56 -180q0 -88 52 -140t284 -156q192 -80 276 -180t84 -236q0 -144 -100 -256t-292 -112q-80 0 -148 28 t-108 28q-24 0 -48 -16t-56 -40l-64 392l48 16q56 -200 156 -276t228 -76q136 0 204 80t68 232q0 80 -76 156t-236 148z" />
<glyph unicode="T" d="M712 32h-416v48h72q40 0 56 16t16 48v1120q0 64 -8 72t-64 8q-112 0 -156 -40t-108 -216l-48 8l72 304h760l64 -304l-40 -8q-64 168 -100 212t-148 44q-80 0 -88 -8t-8 -80v-1112q0 -32 20 -48t52 -16h72v-48z" />
<glyph unicode="U" d="M520 80q120 0 204 80t84 200v928q0 32 -16 48t-56 16h-48v48h288v-48h-48q-32 0 -52 -16t-20 -48v-928q0 -160 -108 -252t-244 -92q-144 0 -252 80t-108 256v936q0 32 -16 48t-56 16h-40v48h352v-48h-40q-32 0 -52 -16t-20 -48v-936q0 -160 68 -216t180 -56z" />
<glyph unicode="V" d="M680 1352v48h288v-48h-32q-32 0 -60 -24t-44 -88l-328 -1208h-48l-296 1208q-8 56 -28 84t-60 28h-40v48h344v-48h-32q-40 0 -52 -24t-4 -64l224 -936h16l240 912q16 56 0 84t-64 28h-24z" />
<glyph unicode="W" d="M1008 1400v-48h-32q-16 0 -36 -16t-28 -56l-216 -1248h-48l-128 848h-16l-168 -848h-48l-192 1256q0 32 -12 48t-36 16h-32v48h280v-48h-24q-32 0 -48 -16t-16 -48l128 -880h16l136 664l-24 216q0 32 -20 48t-36 16h-24v48h272v-48h-24q-32 0 -44 -16t-12 -48l120 -856 h16l144 840q8 40 -12 60t-52 20h-24v48h240z" />
<glyph unicode="X" d="M560 768l280 -600q24 -48 52 -68t60 -20h24v-48h-344v48h32q40 0 52 20t-4 52l-216 472l-184 -384q-16 -40 -28 -68t-12 -36q0 -32 20 -44t52 -12h16v-48h-304v48h32q40 0 72 24t48 56l256 544l-272 592q-8 24 -28 40t-52 16h-32v48h328v-48h-24q-48 0 -56 -24t8 -72 l192 -424l192 408q24 56 16 84t-56 28h-48v48h312v-48h-48q-16 0 -40 -16t-48 -48z" />
<glyph unicode="Y" d="M760 1256q8 48 -12 72t-76 24h-16v48h312v-48h-24q-40 0 -72 -28t-56 -84l-248 -632v-464q0 -32 20 -48t52 -16h72v-48h-416v48h72q40 0 56 16t16 48v416l-272 704q-16 40 -40 64t-64 24h-16v48h352v-48h-48q-48 0 -56 -24t8 -72l216 -592h16z" />
<glyph unicode="Z" d="M576 80q104 0 180 68t124 204l48 -8l-88 -312h-768l704 1320h-280q-104 0 -188 -60t-148 -180l-48 16l96 272h728l-704 -1320h344z" />
<glyph unicode="[" d="M880 1624v-72h-400v-1632h400v-72h-480v1776h480z" />
<glyph unicode="\" d="M152 1488h96l680 -1704h-96z" />
<glyph unicode="]" d="M616 -152h-480v72h400v1632h-400v72h480v-1776z" />
<glyph unicode="^" d="M608 1656l168 -216l-16 -16l-248 160l-256 -160l-16 16l176 216h192z" />
<glyph unicode="_" d="M0 -280v48h1016v-48h-1016z" />
<glyph unicode="`" d="M400 1656l176 -176l-8 -32l-400 184l16 24h216z" />
<glyph unicode="a" d="M392 24q-144 0 -224 68t-80 156q0 144 124 236t492 132v96q0 80 -36 132t-164 52q-136 0 -192 -44t-40 -92q16 -32 0 -64t-64 -32q-32 0 -52 20t-20 60q0 72 104 136t256 64q160 0 240 -60t80 -172v-528q0 -64 12 -76t44 -12q40 0 56 36t16 100h40q0 -112 -40 -156 t-104 -44q-56 0 -88 24t-48 80q-80 -56 -148 -84t-164 -28zM224 272q0 -72 44 -132t140 -60q72 0 144 28t152 84v376q-272 -32 -376 -108t-104 -188z" />
<glyph unicode="b" d="M280 744q40 88 128 140t168 52q168 0 252 -116t84 -340t-108 -340t-268 -116q-80 0 -148 28t-116 76l-72 -96h-32v1256q0 32 -16 48t-56 16h-48v48h72q40 0 80 16t80 48v-720zM280 296q0 -88 60 -152t180 -64q144 0 204 100t60 300q0 192 -52 292t-164 100 q-96 0 -168 -56t-120 -200v-320z" />
<glyph unicode="c" d="M688 712q0 24 4 32t12 32q8 32 -32 76t-136 44q-120 0 -204 -116t-84 -308q0 -176 72 -284t240 -108q112 0 188 72t108 168l40 -16q-32 -120 -120 -204t-240 -84q-192 0 -304 120t-112 344q0 200 120 332t312 132q136 0 212 -72t76 -144q0 -48 -20 -68t-60 -20 q-32 0 -52 20t-20 52z" />
<glyph unicode="d" d="M736 752q-40 64 -104 92t-128 28q-120 0 -188 -112t-68 -296q0 -192 64 -284t184 -92q88 0 148 56t92 168v440zM472 24q-144 0 -248 116t-104 340q0 208 112 332t264 124q64 0 132 -28t108 -84v432q0 48 -16 72t-56 24h-64v48h88q40 0 80 16t80 48v-1264q0 -40 16 -56 t48 -16h56v-48h-48q-32 0 -76 -12t-92 -36h-16v152q-40 -72 -108 -116t-156 -44z" />
<glyph unicode="e" d="M768 528q8 176 -60 268t-180 92q-120 0 -196 -96t-76 -264h512zM256 480q0 -216 84 -308t220 -92q104 0 176 60t104 148l40 -16q-24 -88 -108 -172t-228 -84q-184 0 -300 120t-116 344q0 200 116 332t284 132q152 0 264 -104t112 -360h-648z" />
<glyph unicode="f" d="M360 1064q0 168 104 252t232 84q136 0 204 -48t68 -112q0 -32 -16 -56t-64 -24q-32 0 -52 16t-20 56q0 8 4 24t4 24q0 32 -24 52t-112 20q-96 0 -156 -60t-60 -204v-160h336v-48h-336v-736q0 -32 20 -48t52 -16h192v-48h-584v48h136q40 0 56 16t16 48v736h-248v48h248 v136z" />
<glyph unicode="g" d="M280 632q0 -96 56 -164t152 -68q104 0 156 60t52 172q0 136 -60 196t-148 60t-148 -60t-60 -196zM672 200q120 -16 176 -68t56 -140q0 -120 -100 -192t-316 -72q-168 0 -272 68t-104 156q0 56 40 112t128 88q-48 24 -76 52t-28 68q0 48 32 84t80 60q-48 40 -84 96 t-36 120q0 120 84 212t236 92q64 0 124 -16t100 -56q56 40 100 60t76 20q40 0 56 -28t16 -52q0 -32 -12 -52t-44 -20q-24 0 -40 12t-24 36t-36 20t-60 -28q32 -32 48 -88t16 -112q0 -96 -76 -188t-244 -92q-48 0 -88 12t-64 28q-32 -16 -48 -40t-16 -40q0 -32 16 -48t48 -16 q104 -16 188 -28t148 -20zM344 136q-72 -32 -100 -76t-28 -108t72 -120t216 -56q136 0 216 44t80 132q0 56 -20 88t-60 40q-80 16 -176 28t-200 28z" />
<glyph unicode="h" d="M64 32v48h40q40 0 56 16t16 48v1144q0 32 -16 48t-56 16h-48v48h88q32 0 64 16t64 48h16v-680q72 88 148 124t164 36q120 0 184 -68t64 -212v-520q0 -32 20 -48t52 -16h40v-48h-336v48h40q40 0 56 16t16 48v504q0 136 -44 180t-116 44q-64 0 -140 -40t-148 -136v-552 q0 -32 20 -48t52 -16h40v-48h-336z" />
<glyph unicode="i" d="M456 808q0 32 -16 52t-56 20h-168v48h80q72 0 136 12t120 44h16v-840q0 -32 20 -48t52 -16h168v-48h-592v48h168q40 0 56 16t16 48v664zM520 1416q40 0 72 -28t32 -68t-32 -72t-72 -32t-72 32t-32 72t32 68t72 28z" />
<glyph unicode="j" d="M792 112q0 -184 -112 -280t-272 -96q-128 0 -188 40t-60 96q0 32 20 52t60 20t52 -24t20 -48q16 -48 40 -60t80 -12q128 0 188 68t60 212v728q0 32 -16 52t-56 20h-160v48h72q72 0 136 12t120 44h16v-872zM728 1416q48 0 76 -28t28 -68t-28 -72t-76 -32q-40 0 -72 32 t-32 72t32 68t72 28z" />
<glyph unicode="k" d="M536 608l304 -472q24 -32 44 -44t44 -12h32v-48h-328v48h24q40 0 56 12t-8 44l-248 392l-160 -168v-216q0 -32 20 -48t52 -16h40v-48h-336v48h40q40 0 56 16t16 48v1144q0 32 -16 48t-56 16h-48v48h72q48 0 84 16t60 48h16v-1016l336 360q16 32 12 52t-36 20h-48v48h336 v-48h-40q-24 0 -60 -12t-68 -44z" />
<glyph unicode="l" d="M296 1400q72 0 136 16t120 48h16v-1320q0 -32 20 -48t52 -16h184v-48h-624v48h184q40 0 56 16t16 48v1144q0 32 -16 48t-56 16h-176v48h88z" />
<glyph unicode="m" d="M56 928q40 0 80 8t64 24h16v-136q40 64 88 92t104 28q72 0 112 -28t48 -92q40 64 92 92t108 28q96 0 132 -56t36 -144v-608q0 -32 16 -44t48 -12h16v-48h-272v48h16q32 0 48 12t16 44v600q0 88 -20 116t-60 28q-56 0 -100 -40t-68 -112v-592q0 -32 16 -44t48 -12h16v-48 h-272v48h16q32 0 48 12t16 44v600q0 72 -16 108t-64 36q-56 0 -100 -40t-68 -120v-584q0 -32 16 -44t48 -12h16v-48h-272v48h16q32 0 48 12t16 44v696q0 24 -8 36t-32 12h-32v48h24z" />
<glyph unicode="n" d="M64 32v48h40q40 0 56 16t16 48v688q0 24 -8 36t-32 12h-64v48h56q40 0 76 8t68 32h16v-184q72 80 144 120t152 40q136 0 200 -72t64 -216v-512q0 -32 20 -48t52 -16h40v-48h-336v48h40q40 0 56 16t16 48v536q0 96 -40 148t-120 52q-72 0 -148 -48t-140 -136v-552 q0 -32 20 -48t52 -16h40v-48h-336z" />
<glyph unicode="o" d="M928 480q0 -200 -120 -332t-296 -132q-184 0 -300 136t-116 328q0 176 116 320t300 144q192 0 304 -144t112 -320zM224 472q0 -208 84 -308t204 -100q136 0 212 108t76 300q0 208 -84 316t-204 108q-112 0 -200 -108t-88 -316z" />
<glyph unicode="p" d="M368 -216h56v-48h-368v48h48q40 0 56 16t16 56v944q0 32 -16 52t-56 20h-48v48h72q40 0 76 8t68 32h16v-184q56 80 124 120t148 40q160 0 264 -108t104 -340q0 -224 -112 -344t-264 -120q-88 0 -148 28t-116 84v-280q0 -40 24 -56t56 -16zM288 240q40 -80 100 -120 t140 -40q112 0 192 100t80 308q0 192 -60 288t-180 96q-72 0 -144 -44t-128 -140v-448z" />
<glyph unicode="q" d="M728 720q-32 72 -88 116t-136 44q-112 0 -192 -96t-80 -328q0 -200 68 -284t172 -84q88 0 156 40t100 136v456zM840 -144q0 -40 20 -56t52 -16h48v-48h-368v48h64q40 0 56 16t16 56v296q-48 -64 -116 -96t-164 -32q-136 0 -240 116t-104 340q0 216 120 336t256 120 q88 0 148 -32t108 -80l72 104h32v-1072z" />
<glyph unicode="r" d="M408 680q80 128 172 196t188 68q80 0 124 -36t44 -84q0 -40 -20 -64t-60 -24t-60 24t-12 64q0 24 -8 40t-48 16q-64 0 -156 -80t-164 -224v-432q0 -32 20 -48t52 -16h176v-48h-592v48h160q40 0 56 16t16 48v664q0 32 -16 52t-56 20h-152v48h64q56 0 132 12t116 28h24 v-288z" />
<glyph unicode="s" d="M200 696q0 120 92 184t220 64q72 0 136 -20t88 -20t40 8t40 32l32 -264l-48 -8q-32 104 -108 164t-172 60q-104 0 -164 -40t-60 -112q0 -64 28 -100t100 -52q56 -24 140 -52t156 -60q64 -32 108 -84t44 -116q0 -120 -84 -188t-244 -68q-104 0 -156 20t-84 20 q-24 0 -52 -12t-60 -28l-24 296l48 8q24 -128 104 -192t224 -64q112 0 172 40t60 120q0 56 -32 92t-64 52q-80 32 -176 68t-168 68t-104 80t-32 104z" />
<glyph unicode="t" d="M480 288q0 -112 40 -152t120 -40t128 52t64 148l40 -16q-16 -112 -84 -184t-180 -72q-120 0 -180 72t-60 224v560h-240v48h64q96 0 156 60t76 188l8 64h48v-312h320v-48h-320v-592z" />
<glyph unicode="u" d="M464 104q96 0 164 48t100 152v504q0 32 -16 52t-56 20h-48v48h48q48 0 88 8t80 40h16v-784q0 -32 20 -48t52 -16h48v-48h-48q-40 0 -80 -12t-88 -36h-16v168q-40 -88 -120 -132t-184 -44q-128 0 -192 72t-64 232v480q0 32 -16 52t-56 20h-48v48h48q48 0 88 8t80 40h16 v-664q0 -112 48 -160t136 -48z" />
<glyph unicode="v" d="M520 24h-48l-272 784q-8 32 -32 52t-56 20h-40v48h344v-48h-32q-48 0 -60 -24t4 -80l192 -560h16l192 552q24 56 4 84t-68 28h-16v48h288v-48h-16q-48 0 -76 -28t-52 -84z" />
<glyph unicode="w" d="M744 928h272v-48h-32q-32 0 -56 -24t-40 -80l-192 -752h-48l-144 608l-152 -608h-48l-184 736q-8 56 -32 88t-48 32h-32v48h288v-48h-32q-32 0 -40 -28t0 -76l120 -520h16l120 480q-8 72 -32 108t-56 36h-24v48h272v-48h-24q-32 0 -40 -28t0 -76l120 -520h8l136 560 q8 32 -8 48t-48 16h-40v48z" />
<glyph unicode="x" d="M536 584l144 216q24 32 20 56t-60 24h-48v48h312v-48h-40q-16 0 -40 -4t-40 -28l-216 -320l224 -368q24 -40 60 -60t52 -20h32v-48h-352v48h48q48 0 52 24t-12 56l-168 272l-192 -280q-8 -40 4 -56t44 -16h24v-48h-312v48h48q32 0 72 24t64 72l208 312l-208 336 q-8 16 -32 36t-64 20h-40v48h344v-48h-24q-40 0 -48 -24t8 -56z" />
<glyph unicode="y" d="M528 256h16l176 536q16 40 -4 64t-52 24h-48v48h336v-48h-48q-32 0 -64 -24t-48 -64l-272 -792q-40 -120 -100 -188t-156 -68q-56 0 -88 20t-32 60q0 24 20 48t60 24q32 0 64 -28t48 -28q24 0 40 8t24 32q24 40 48 100t40 124l-272 704q-8 32 -36 52t-60 20h-32v48h336 v-48h-32q-32 0 -48 -20t-8 -60z" />
<glyph unicode="z" d="M880 344l-56 -312h-688v40l552 808h-296q-72 0 -120 -52t-80 -180l-48 8l32 272h656v-24l-560 -824h304q104 0 164 64t92 208z" />
<glyph unicode="{" d="M680 112q0 -104 44 -164t148 -60v-56q-136 0 -200 68t-64 244v344q0 96 -32 156t-144 68v48q104 16 140 64t36 160v344q0 176 64 244t200 68v-56q-104 0 -148 -56t-44 -168v-392q0 -128 -56 -176t-120 -48v-16q72 0 124 -56t52 -168v-392z" />
<glyph unicode="|" d="M480 -280v2040h48v-2040h-48z" />
<glyph unicode="}" d="M592 712q-104 -8 -140 -68t-36 -156v-344q0 -176 -64 -244t-200 -68v56q112 0 152 60t40 164v392q0 112 52 168t124 56v16q-64 0 -120 48t-56 176v392q0 112 -40 168t-152 56v56q136 0 200 -68t64 -244v-344q0 -112 40 -160t136 -64v-48z" />
<glyph unicode="~" d="M440 1560l-72 72t-80 32q-64 0 -104 -60t-64 -156l-40 16q40 152 100 208t132 56q32 0 72 -8t80 -48q32 -24 72 -72t72 -80q40 -40 76 -68t68 -28q64 0 104 56t64 152l40 -16q-40 -144 -100 -204t-132 -60q-32 0 -68 12t-76 44q-24 24 -64 68t-80 84z" />
<glyph />
<glyph unicode="&#xa0;" />
<glyph unicode="&#xa4;" horiz-adv-x="2048" d="M1032 1432q272 0 480 -224q192 -200 168 -432q24 -248 -168 -488q-192 -184 -448 -200q-272 -56 -536 184q-144 152 -184 472q-16 272 200 512q192 184 488 176v0zM160 1536l264 -256q-192 -232 -192 -520q16 -280 200 -528l-256 -248l72 -64l240 240q264 -184 560 -176 q224 8 480 176l256 -240l64 72l-240 248q152 200 176 472q32 288 -184 576l256 256l-64 72l-272 -264q-248 168 -496 176q-320 0 -536 -184l-264 256l-64 -64v0z" />
<glyph unicode="&#xa7;" horiz-adv-x="2048" d="M968 1024q-88 16 -200 -32q-160 -88 -120 -232q32 -136 224 -360q232 -240 272 -312q40 -88 -40 -136q-144 -56 -280 -8q-40 32 -16 96q8 56 -40 88q-72 24 -112 -48q-32 -80 64 -160q56 -64 248 -64q208 0 288 96q72 88 16 208q-64 120 -192 240q152 0 216 64 q112 112 72 288q-8 120 -232 312q-136 120 -272 248q-96 136 0 216q88 72 208 56q120 -32 112 -96q-16 -48 40 -96q64 -16 104 40q24 64 -16 104q-72 112 -296 104q-152 0 -240 -88q-56 -88 -40 -232q48 -104 232 -296v0zM752 784q-64 136 104 184q152 24 216 -48 q120 -88 152 -200q56 -152 -40 -232q-48 -48 -152 -32q-144 128 -280 328v0z" />
<glyph unicode="&#xa8;" horiz-adv-x="2048" d="M736 1488q-88 8 -104 -104q16 -96 96 -96q96 8 104 88q0 104 -96 112v0zM1376 1376q0 104 -96 112q-88 8 -104 -104q0 -80 96 -88q96 8 104 80v0z" />
<glyph unicode="&#xad;" d="M64 712v72h888v-72h-888z" />
<glyph unicode="&#xb0;" horiz-adv-x="2048" d="M512 1424q160 0 168 -184q-8 -136 -176 -168q-136 0 -168 160q8 176 176 192v0zM504 1488q-232 -32 -240 -248q16 -208 232 -224q248 16 248 224q8 232 -240 248v0z" />
<glyph unicode="&#xb1;" horiz-adv-x="2048" d="M304 800h656v-568h88v568h680v96h-680v656h-88v-656h-656v-96v0zM304 40v-80h1424v80h-1424v0z" />
<glyph unicode="&#xb7;" horiz-adv-x="2048" d="M1144 568q144 96 104 256q-48 200 -256 184q-184 -16 -232 -192q-48 -168 104 -264q168 -72 280 16v0z" />
<glyph unicode="&#xd7;" horiz-adv-x="2048" d="M1672 1384l-64 64l-568 -600l-592 592l-64 -64l592 -600l-592 -592l64 -64l584 592l584 -592l64 80l-576 584l568 600v0z" />
<glyph unicode="&#xe0;" horiz-adv-x="2048" d="M816 976q-64 -24 -96 -104q-96 144 -352 104q-320 -160 -280 -568q72 -336 336 -352q184 -8 280 120q40 -120 80 -112q128 -8 104 24q-40 24 -72 120v768v0zM712 768v-488q-120 -200 -328 -136q-184 96 -168 384q-8 264 176 344q256 56 320 -104v0zM440 1416 q-56 56 -112 16q-56 -56 -16 -112q88 -112 184 -224q88 -64 56 32q-24 112 -112 288v0z" />
<glyph unicode="&#xe1;" horiz-adv-x="2048" d="M816 976q-64 -24 -96 -104q-96 144 -352 104q-320 -160 -280 -568q72 -336 336 -352q184 -8 280 120q40 -120 80 -112q128 -8 104 24q-40 24 -72 120v768v0zM712 768v-488q-120 -200 -328 -136q-184 96 -168 384q-8 264 176 344q256 56 320 -104v0zM664 1376 q-104 -80 -232 -216q-64 -48 0 -96q48 -48 96 8q80 72 168 280q16 72 -32 24v0z" />
<glyph unicode="&#xe8;" horiz-adv-x="2048" d="M240 632q24 160 120 264q136 120 248 16q120 -80 112 -280h-480v0zM872 568q40 320 -264 448q-240 64 -384 -128q-208 -240 -96 -576q152 -312 472 -240q168 64 248 200q40 80 -40 8q-168 -152 -392 -104q-184 48 -168 392h624v0zM304 1496q-40 -40 -16 -112 q80 -112 192 -224q72 -48 56 40q-32 112 -120 288q-40 64 -112 8v0z" />
<glyph unicode="&#xe9;" horiz-adv-x="2048" d="M240 624q24 160 120 264q136 120 248 16q104 -80 112 -280h-480v0zM872 560q24 320 -264 448q-232 64 -392 -128q-192 -240 -96 -576q152 -312 472 -240q160 64 256 200q24 80 -48 8q-168 -152 -392 -104q-168 48 -168 392h632v0zM704 1424q24 72 -40 16 q-112 -72 -224 -208q-56 -64 -8 -96q64 -48 104 0q64 80 168 288v0z" />
<glyph unicode="&#xea;" horiz-adv-x="2048" d="M240 624q24 160 120 264q136 120 248 16q120 -80 112 -280h-480v0zM872 560q40 320 -264 448q-240 64 -384 -128q-208 -240 -96 -576q152 -312 472 -240q168 64 248 200q40 80 -40 8q-168 -152 -392 -104q-184 48 -168 392h624v0zM488 1504q-56 8 -112 -40 q-56 -64 -176 -256q-40 -88 24 -40q96 80 264 200q152 -112 240 -184q80 -48 32 32q-48 96 -160 224q-40 64 -112 64v0z" />
<glyph unicode="&#xec;" horiz-adv-x="2048" d="M400 1008l-48 8q-48 -48 -184 -64v-32q112 -16 104 -88v-648q0 -80 -152 -96v-32h424v32q-96 8 -152 88l8 832v0zM352 1176q-24 112 -112 288q-56 64 -112 8q-56 -40 -16 -112q88 -112 184 -224q88 -48 56 40v0z" />
<glyph unicode="&#xed;" horiz-adv-x="2048" d="M368 1008l-40 8q-64 -48 -184 -64l-8 -32q120 -16 112 -88v-648q0 -80 -152 -96v-32h424v32q-96 8 -152 88v832v0zM448 1448q-104 -72 -232 -208q-64 -64 0 -96q48 -48 96 0q80 80 168 288q16 72 -32 16v0z" />
<glyph unicode="&#xf2;" horiz-adv-x="2048" d="M512 976q-200 -8 -336 -176q-152 -248 -48 -488q112 -248 320 -264q200 -16 336 104q192 232 104 536q-80 256 -376 288v0zM528 920q168 -24 240 -272q64 -224 -56 -408q-80 -152 -256 -136q-128 80 -184 200q-72 184 -16 408q88 184 272 208v0zM432 1416q-56 64 -112 8 q-56 -40 -16 -112q88 -112 184 -224q88 -48 56 40q-24 112 -112 288v0z" />
<glyph unicode="&#xf3;" horiz-adv-x="2048" d="M512 984q-200 -8 -336 -176q-152 -248 -48 -488q112 -248 320 -264q200 -16 336 104q192 232 104 536q-80 256 -376 288v0zM528 928q168 -24 240 -272q64 -224 -56 -408q-80 -152 -256 -136q-128 80 -184 200q-72 184 -16 408q88 184 272 208v0zM712 1400 q-104 -72 -232 -208q-64 -64 0 -96q48 -48 96 0q80 80 168 288q16 72 -32 16v0z" />
<glyph unicode="&#xf7;" horiz-adv-x="2048" d="M1016 1448q-120 -16 -144 -160q0 -136 160 -144q144 0 136 160q0 120 -152 144v0zM1032 96q144 16 136 160q0 136 -152 144q-120 0 -144 -152q0 -144 160 -152v0zM280 720h1496v88h-1496v-88v0z" />
<glyph unicode="&#xf9;" horiz-adv-x="2048" d="M632 1024v-40q120 -24 120 -112v-552q-32 -104 -184 -144q-200 -40 -232 88v760h-248v-32q128 -8 136 -104v-688q56 -168 280 -144q168 48 248 160q-40 -208 216 -152v40q-88 -16 -104 128v792h-232v0zM464 1440q-40 56 -112 16q-40 -56 -16 -112q80 -112 192 -224 q72 -64 56 32q-32 112 -120 288v0z" />
<glyph unicode="&#xfa;" horiz-adv-x="2048" d="M864 1024h-224l-8 -32q120 -24 120 -112v-552q-32 -112 -184 -152q-192 -48 -224 96v752h-248v-32q128 0 136 -96v-696q40 -168 272 -144q168 48 248 160q-32 -208 224 -152v48q-104 -16 -112 128v784v0zM760 1400q16 72 -32 24q-104 -80 -232 -216q-64 -48 0 -96 q48 -48 96 8q80 72 168 280v0z" />
<glyph unicode="&#xfc;" horiz-adv-x="2048" d="M864 1048h-232v-32q120 -24 120 -112v-584q-32 -104 -184 -144q-200 -40 -232 88v784h-248v-32q128 0 136 -96v-720q56 -168 280 -144q168 48 248 160q-40 -208 216 -152v40q-88 -16 -104 128v816v0zM752 1312q-160 -8 -96 -168q80 -80 168 8q40 128 -72 160v0zM328 1312 q-160 -8 -96 -168q80 -88 168 16q40 136 -72 152v0z" />
<glyph unicode="&#x2000;" horiz-adv-x="880" />
<glyph unicode="&#x2001;" horiz-adv-x="1760" />
<glyph unicode="&#x2002;" horiz-adv-x="880" />
<glyph unicode="&#x2003;" horiz-adv-x="1760" />
<glyph unicode="&#x2004;" horiz-adv-x="586" />
<glyph unicode="&#x2005;" horiz-adv-x="440" />
<glyph unicode="&#x2006;" horiz-adv-x="293" />
<glyph unicode="&#x2007;" horiz-adv-x="293" />
<glyph unicode="&#x2008;" horiz-adv-x="220" />
<glyph unicode="&#x2009;" horiz-adv-x="352" />
<glyph unicode="&#x200a;" horiz-adv-x="97" />
<glyph unicode="&#x2010;" d="M64 712v72h888v-72h-888z" />
<glyph unicode="&#x2011;" d="M64 712v72h888v-72h-888z" />
<glyph unicode="&#x2012;" d="M64 712v72h888v-72h-888z" />
<glyph unicode="&#x2013;" horiz-adv-x="2048" d="M1520 800v48h-896v-48h896v0z" />
<glyph unicode="&#x2014;" horiz-adv-x="2048" d="M112 792v-80h1768v80h-1768v0z" />
<glyph unicode="&#x2018;" horiz-adv-x="2048" d="M1448 1208q24 152 216 312q64 64 -24 32q-408 -296 -296 -552q56 -80 176 -56q104 56 80 184q0 88 -152 80v0z" />
<glyph unicode="&#x2019;" horiz-adv-x="2048" d="M616 1352q40 160 -104 192q-160 24 -152 -144q24 -136 152 -112q-48 -144 -184 -288q-96 -96 32 -24q208 168 256 376v0z" />
<glyph unicode="&#x201c;" horiz-adv-x="2048" d="M1600 1496q-248 -168 -304 -392q-16 -176 136 -216q152 -8 152 144q0 144 -160 136q40 152 216 312q88 88 -40 16v0zM1168 1504q-352 -264 -312 -496q40 -128 184 -120q136 64 88 192q-16 104 -152 80q48 160 232 328q72 72 -40 16v0z" />
<glyph unicode="&#x201d;" horiz-adv-x="2048" d="M512 1272q-40 -128 -200 -288q-80 -104 32 -16q232 168 280 344q56 208 -112 232q-128 8 -152 -112q-8 -160 152 -160v0zM936 1272q-48 -144 -216 -312q-48 -56 32 -16q248 200 304 376q64 192 -120 232q-120 24 -144 -144q-8 -120 144 -136v0z" />
<glyph unicode="&#x2026;" horiz-adv-x="2048" d="M328 936q-136 -8 -144 -168q24 -136 144 -144q176 0 168 160q-8 152 -168 152v0zM1160 792q0 152 -160 152q-136 -8 -144 -168q8 -136 144 -144q160 0 160 160v0zM1664 632q176 16 168 168t-168 152q-136 -8 -144 -168q24 -144 144 -152v0z" />
<glyph unicode="&#x202f;" horiz-adv-x="352" />
<glyph unicode="&#x205f;" horiz-adv-x="440" />
<glyph unicode="&#x25fc;" horiz-adv-x="920" d="M0 920h920v-920h-920v920z" />
</font>
</defs>
</svg>
